<svg class="svg-icon" style="width: 1em; height: 1em;vertical-align: middle;fill: currentColor;overflow: hidden;" viewBox="0 0 1024 1024" version="1.1" xmlns="http://www.w3.org/2000/svg"><path d="M512 907.264a68.9664 68.9664 0 0 1-49.152-20.48l-167.936-169.472a34.4064 34.4064 0 1 1 49.152-48.128l167.936 169.472 322.56-326.656a191.0272 191.0272 0 0 0 53.248-161.28 192.9728 192.9728 0 0 0-94.72-141.824c-72.192-41.984-167.424-26.624-230.912 37.376l-26.112 26.112a35.84 35.84 0 0 1-48.64 0l-26.112-26.112c-63.488-64.512-158.72-79.872-230.912-37.376a192.4096 192.4096 0 0 0-90.112 117.76 196.4032 196.4032 0 0 0 19.968 147.968 34.4064 34.4064 0 1 1-59.392 34.816 263.9872 263.9872 0 0 1-27.136-199.68 258.9184 258.9184 0 0 1 122.368-159.744C295.424 92.16 424.96 112.128 510.464 198.656l1.536 1.536 1.536-1.536c85.504-86.528 215.04-106.496 314.368-48.64a262.2464 262.2464 0 0 1 55.808 410.624l-322.56 326.656a70.656 70.656 0 0 1-49.152 19.968z" fill="#444444" /><path d="M236.544 657.408l-60.928-60.928 210.944-210.944a34.6112 34.6112 0 0 1 48.64 0l110.08 110.08 180.224-180.224 60.928 60.928-216.576 216.576a34.6112 34.6112 0 0 1-48.64 0L411.136 482.816z" fill="#00B65F" /></svg>