<svg width="32" height="32" viewBox="0 0 32 32" fill="none" xmlns="http://www.w3.org/2000/svg">
<path d="M10.7382 0.427845L15.4284 1.78405C15.7674 1.88208 16.1272 1.88283 16.4666 1.78621L21.2966 0.411303C22.1418 0.170715 23.0409 0.546916 23.463 1.31768L25.9694 5.89504C26.1375 6.20214 26.388 6.45626 26.6927 6.62883L30.6787 8.88671C31.4497 9.32347 31.8117 10.2389 31.5479 11.0849L30.1672 15.513C30.054 15.876 30.0534 16.2648 30.1655 16.6282L31.56 21.1493C31.8177 21.9849 31.4661 22.8879 30.7113 23.3292L26.268 25.9266C25.9649 26.1039 25.7173 26.3624 25.5534 26.673L23.4399 30.6768C23.031 31.4515 22.1418 31.8417 21.2948 31.6181L16.4314 30.3344C16.1141 30.2507 15.7804 30.2513 15.4635 30.3363L10.7488 31.6004C9.88223 31.8328 8.97213 31.4213 8.57421 30.6172L6.46789 26.3608C6.29108 26.0035 6.00542 25.7116 5.65206 25.5271L1.34775 23.2796C0.561474 22.869 0.168508 21.9652 0.404481 21.1102L1.6597 16.562C1.74855 16.24 1.75014 15.9002 1.66431 15.5775L0.376636 10.735C0.155154 9.90215 0.52762 9.02522 1.2808 8.60629L5.70271 6.1468C6.02438 5.96789 6.28654 5.69859 6.45674 5.37222L8.54628 1.36568C8.9606 0.571256 9.87745 0.178965 10.7382 0.427845Z" fill="#477577"/>
<path d="M16 10.75V21.25" stroke="white" stroke-width="2" stroke-linecap="round" stroke-linejoin="round"/>
<path d="M10.75 16H21.25" stroke="white" stroke-width="2" stroke-linecap="round" stroke-linejoin="round"/>
</svg>
